<svg id="visual" viewBox="0 0 1920 600" width="1920" height="600" xmlns="http://www.w3.org/2000/svg" xmlns:xlink="http://www.w3.org/1999/xlink" version="1.1"><path d="M0 265L35.5 263C71 261 142 257 213.2 250C284.3 243 355.7 233 426.8 215C498 197 569 171 640 187C711 203 782 261 853.2 277C924.3 293 995.7 267 1066.8 234C1138 201 1209 161 1280 152C1351 143 1422 165 1493.2 177C1564.3 189 1635.7 191 1706.8 183C1778 175 1849 157 1884.5 148L1920 139L1920 0L1884.5 0C1849 0 1778 0 1706.8 0C1635.7 0 1564.3 0 1493.2 0C1422 0 1351 0 1280 0C1209 0 1138 0 1066.8 0C995.7 0 924.3 0 853.2 0C782 0 711 0 640 0C569 0 498 0 426.8 0C355.7 0 284.3 0 213.2 0C142 0 71 0 35.5 0L0 0Z" fill="#51ae0d"></path><path d="M0 511L35.5 495C71 479 142 447 213.2 429C284.3 411 355.7 407 426.8 414C498 421 569 439 640 455C711 471 782 485 853.2 474C924.3 463 995.7 427 1066.8 424C1138 421 1209 451 1280 467C1351 483 1422 485 1493.2 474C1564.3 463 1635.7 439 1706.8 446C1778 453 1849 491 1884.5 510L1920 529L1920 137L1884.5 146C1849 155 1778 173 1706.8 181C1635.7 189 1564.3 187 1493.2 175C1422 163 1351 141 1280 150C1209 159 1138 199 1066.8 232C995.7 265 924.3 291 853.2 275C782 259 711 201 640 185C569 169 498 195 426.8 213C355.7 231 284.3 241 213.2 248C142 255 71 259 35.5 261L0 263Z" fill="#35a305"></path><path d="M0 601L35.5 601C71 601 142 601 213.2 601C284.3 601 355.7 601 426.8 601C498 601 569 601 640 601C711 601 782 601 853.2 601C924.3 601 995.7 601 1066.8 601C1138 601 1209 601 1280 601C1351 601 1422 601 1493.2 601C1564.3 601 1635.7 601 1706.8 601C1778 601 1849 601 1884.5 601L1920 601L1920 527L1884.5 508C1849 489 1778 451 1706.8 444C1635.7 437 1564.3 461 1493.2 472C1422 483 1351 481 1280 465C1209 449 1138 419 1066.8 422C995.7 425 924.3 461 853.2 472C782 483 711 469 640 453C569 437 498 419 426.8 412C355.7 405 284.3 409 213.2 427C142 445 71 477 35.5 493L0 509Z" fill="#009700"></path></svg>